 http://imageshack.us/m/88/8761/littlesparrows2010holly.jpg

Country.......: Australia
Genre.........: Drama
Date release..: 29.07.2010 [World]
Director......: Yu Hsiu Camille Chen
Writers.......: Yu Hsiu Camille Chen
Duration......: 89 min.
More..........: http://www.imdb.com/title/tt1642266
Trailer.......: http://www.imdb.com/video/screenplay/vi1745394201
Trailer.......:

Pilot :
Simple and sincere, celebrating life and the unconditional love of a mother. 

Cats :
Nicola Bartlett   	 ...  	Susan
James Hagan 	... 	James
Nina Deasley 	... 	Nina
Melanie Munt 	... 	Anna
Arielle Gray 	... 	Christine
Scott Jackson 	... 	Mark
Nick Candy 	... 	Rick
Whitney Richards 	... 	Rosie
Simon Lockwood 	... 	Simon
Christie Sistrunk 	... 	Sophie 

Data Technical :
!!! SAMPLE !!!
Audio.....: English
Subtitles.: None
Format/Info                      : Audio Video Interleave
File size                        : 699 MiB
Duration                         : 1h 28mn
Overall bit rate                 : 1 101 Kbps
Writing application              : FairUse Wizard - http://fairusewizard.com
Writing library                  : The best and REALLY easy backup tool
Video
ID                               : 0
Format                           : MPEG-4 Visual
Format profile                   : Advanced Simple@L5
Format settings, BVOP            : Yes
Format settings, QPel            : No
Format settings, GMC             : No warppoints
Format settings, Matrix          : Default (MPEG)
Muxing mode                      : Packed bitstream
Codec ID                         : XVID
Codec ID/Hint                    : XviD
Duration                         : 1h 28mn
Bit rate                         : 964 Kbps
Width                            : 672 pixels
Height                           : 288 pixels
Display aspect ratio             : 2.35:1
Frame rate                       : 23.976 fps
Color space                      : YUV
Chroma subsampling               : 4:2:0
Bit depth                        : 8 bits
Scan type                        : Progressive
Bits/(Pixel*Frame)               : 0.208
Stream size                      : 612 MiB (88%)
Writing library                  : XviD 1.2.0.dev47 (UTC 2006-11-01)
Audio
ID                               : 1
Format                           : MPEG Audio
Format version                   : Version 1
Format profile                   : Layer 3
Mode                             : Joint stereo
Mode extension                   : MS Stereo
Codec ID                         : 55
Codec ID/Hint                    : MP3
Duration                         : 1h 28mn
Bit rate mode                    : Constant
Bit rate                         : 128 Kbps
Channel(s)                       : 2 channels
Sampling rate                    : 48.0 KHz
Stream size                      : 81.3 MiB (12%)
Alignment                        : Aligned on interleaves
Interleave, duration             : 42 ms (1.00 video frame)
Interleave, preload duration     : 504 ms
Writing library                  : LAME3.97 
Encoding settings                : -m j -V 4 -q 2 -lowpass 17 -b 128

Screen : 
http://imageshack.us/m/859/240/littlesparrows2010s1.jpg 
http://imageshack.us/m/28/6016/littlesparrows2010s2.jpg 
http://imageshack.us/m/851/9350/littlesparrows2010s3.jpg 
http://imageshack.us/m/824/759/littlesparrows2010s4.jpg 
http://imageshack.us/m/848/1828/littlesparrows2010s5.jpg